HIERARCHY
ROOT Hips
{
	OFFSET	0.000000	0.000000	0.000000
	CHANNELS 6 Xposition Yposition Zposition Zrotation Xrotation Yrotation
	JOINT LeftHip
	{
		OFFSET	4.740440	-3.195970	-0.322709
		CHANNELS 3 Zrotation Xrotation Yrotation
		JOINT LeftKnee
		{
			OFFSET	-1.605680	-15.592300	1.005510
			CHANNELS 3 Zrotation Xrotation Yrotation
			JOINT LeftAnkle
			{
				OFFSET	-0.632401	-16.421000	-1.413730
				CHANNELS 3 Zrotation Xrotation Yrotation
				End Site
				{
					OFFSET	0.008423	-3.933000	-1.776750
				}
			}
		}
	}
	JOINT RightHip
	{
		OFFSET	-4.740440	-3.195970	-0.322709
		CHANNELS 3 Zrotation Xrotation Yrotation
		JOINT RightKnee
		{
			OFFSET	1.605680	-15.592300	1.005510
			CHANNELS 3 Zrotation Xrotation Yrotation
			JOINT RightAnkle
			{
				OFFSET	0.632401	-16.421000	-1.413730
				CHANNELS 3 Zrotation Xrotation Yrotation
				End Site
				{
					OFFSET	-0.008423	-3.933000	-1.776750
				}
			}
		}
	}
	JOINT Chest
	{
		OFFSET	0.000000	3.468200	0.078401
		CHANNELS 3 Zrotation Xrotation Yrotation
		JOINT LeftCollar
		{
			OFFSET	3.857650	15.070700	-0.011583
			CHANNELS 3 Zrotation Xrotation Yrotation
			JOINT LeftShoulder
			{
				OFFSET	3.979720	-1.940530	-0.165223
				CHANNELS 3 Zrotation Xrotation Yrotation
				JOINT LeftElbow
				{
					OFFSET	0.615844	-10.986600	-0.673886
					CHANNELS 3 Zrotation Xrotation Yrotation
					JOINT LeftWrist
					{
						OFFSET	0.826843	-10.854500	1.034220
						CHANNELS 3 Zrotation Xrotation Yrotation
						End Site
						{
							OFFSET	-1.679080	-8.456540	0.936217
						}
					}
				}
			}
		}
		JOINT RightCollar
		{
			OFFSET	-3.857650	15.070700	-0.011583
			CHANNELS 3 Zrotation Xrotation Yrotation
			JOINT RightShoulder
			{
				OFFSET	-3.979720	-1.940530	-0.165223
				CHANNELS 3 Zrotation Xrotation Yrotation
				JOINT RightElbow
				{
					OFFSET	-0.615845	-10.986600	-0.673886
					CHANNELS 3 Zrotation Xrotation Yrotation
					JOINT RightWrist
					{
						OFFSET	-0.826843	-10.854500	1.034220
						CHANNELS 3 Zrotation Xrotation Yrotation
						End Site
						{
							OFFSET	1.679080	-8.456540	0.936217
						}
					}
				}
			}
		}
		JOINT Neck
		{
			OFFSET	0.000000	15.101400	0.055730
			CHANNELS 3 Zrotation Xrotation Yrotation
			JOINT Head
			{
				OFFSET	0.000000	4.185120	1.488260
				CHANNELS 3 Zrotation Xrotation Yrotation
				End Site
				{
					OFFSET	0.000000	7.773420	-0.106016
				}
			}
		}
	}
}
MOTION
Frames:     20
Frame Time: 0.016667
-5.703249	24.185877	-9.993801	-5.195232	-22.716875	-8.949065	61.845314	-37.069370	29.862949	30.345247	106.437286	-62.241028	-0.170221	-22.790527	1.778040	-52.023800	-34.350040	-36.155262	-13.727279	98.745522	39.060020	-1.785803	-24.895786	1.877753	22.860758	66.606232	-16.072624	8.612697	-23.540598	-5.014841	49.668678	-2.730648	-3.614196	-74.322433	-13.268687	-77.605988	91.661537	-38.019714	5.162765	-24.579588	-17.584812	-1.453202	-46.112949	6.207074	18.067900	55.598660	-49.078190	85.700714	-83.454140	-21.202898	-19.506714	-3.151673	-43.788605	5.319299	-1.162754	1.109089	-3.664671	
-5.702438	24.184441	-9.994606	-5.211225	-22.730639	-8.949059	61.844952	-37.067326	29.841732	30.347271	106.436813	-62.242737	-0.170468	-22.789801	1.777798	-52.005413	-34.335384	-36.144699	-13.727279	98.745522	39.060020	-1.785803	-24.895786	1.877753	22.900646	66.618477	-16.102541	8.603000	-23.533255	-5.009920	49.675774	-2.725535	-3.609861	-74.322983	-13.268009	-77.623116	91.679932	-38.018173	5.172441	-24.579588	-17.584812	-1.453202	-46.112949	6.207074	18.067900	55.602364	-49.142681	85.692497	-83.391441	-21.229378	-19.498823	-3.149514	-43.786999	5.335218	-1.161743	1.124777	-3.641461	
-5.701075	24.183825	-9.995359	-5.225772	-22.742981	-8.949012	61.844761	-37.065582	29.822603	30.347271	106.436813	-62.242737	-0.170468	-22.789801	1.777798	-51.978214	-34.327522	-36.126373	-13.693349	98.739685	39.015835	-1.774142	-24.897472	1.878829	22.936924	66.629410	-16.129713	8.592064	-23.524956	-5.004338	49.683498	-2.720695	-3.611559	-74.303017	-13.309299	-77.629372	91.668480	-38.022049	5.196742	-24.579588	-17.584812	-1.453202	-46.109474	6.197445	18.081758	55.586414	-49.208424	85.659668	-83.341850	-21.257137	-19.542576	-3.145422	-43.783951	5.365398	-1.167862	1.129280	-3.640857	
-5.699809	24.183874	-9.996017	-5.234892	-22.755102	-8.949743	61.841339	-37.061787	29.806276	30.347271	106.436813	-62.242737	-0.170468	-22.789801	1.777798	-51.952534	-34.323914	-36.104549	-13.649784	98.732285	38.959347	-1.759306	-24.899612	1.880201	22.961292	66.640564	-16.149261	8.581018	-23.516573	-4.998604	49.691349	-2.716180	-3.613304	-74.275696	-13.325307	-77.635452	91.688942	-38.023983	5.236226	-24.579588	-17.584812	-1.453202	-46.105160	6.186717	18.096649	55.565910	-49.238197	85.628777	-83.327934	-21.260242	-19.612457	-3.118920	-43.781780	5.383116	-1.187811	1.128636	-3.638829	
-5.698702	24.184765	-9.996394	-5.232947	-22.756645	-8.944143	61.836769	-37.065472	29.802034	30.347271	106.436813	-62.242737	-0.170468	-22.789801	1.777798	-51.941593	-34.326637	-36.094868	-13.597407	98.723801	38.892998	-1.742355	-24.902048	1.881775	22.970741	66.639816	-16.161739	8.598792	-23.501877	-4.985373	49.674038	-2.715290	-3.605847	-74.251007	-13.338605	-77.641563	91.709656	-38.025524	5.272653	-24.579588	-17.584812	-1.453202	-46.094254	6.165073	18.120127	55.523239	-49.244972	85.577179	-83.336731	-21.259840	-19.671988	-3.136979	-43.657822	5.358259	-1.186602	1.003774	-3.629035	
-5.697812	24.185902	-9.997528	-5.225832	-22.758709	-8.930059	61.825249	-37.074978	29.794201	30.347271	106.436813	-62.242737	-0.170468	-22.789801	1.777798	-51.937237	-34.324917	-36.089340	-13.545032	98.715057	38.825645	-1.724875	-24.904570	1.883398	22.989016	66.636330	-16.189064	8.620260	-23.485632	-4.970665	49.653751	-2.716840	-3.596933	-74.225685	-13.351736	-77.646225	91.714508	-38.028484	5.301380	-24.579588	-17.584812	-1.453202	-46.070930	6.126277	18.151497	55.463017	-49.260822	85.500259	-83.324516	-21.246393	-19.715612	-3.163636	-43.493576	5.323709	-1.182867	0.838146	-3.616281	
-5.696791	24.187054	-9.998649	-5.218271	-22.760893	-8.915079	61.813000	-37.085094	29.785875	30.347271	106.436813	-62.242737	-0.170468	-22.789801	1.777798	-51.933174	-34.322815	-36.083961	-13.488043	98.705879	38.753273	-1.706385	-24.907232	1.885101	23.008446	66.632607	-16.218098	8.642107	-23.469091	-4.955705	49.633530	-2.720866	-3.587744	-74.203209	-13.363247	-77.649879	91.717827	-38.031174	5.326380	-24.579588	-17.584812	-1.453202	-46.056763	6.101305	18.174038	55.417625	-49.280025	85.443245	-83.305458	-21.210098	-19.767469	-3.188773	-43.337589	5.291073	-1.179275	0.680853	-3.604159	
-5.696063	24.185516	-9.994621	-5.210402	-22.763157	-8.899495	61.800262	-37.095623	29.777222	30.347271	106.436813	-62.242737	-0.170468	-22.789801	1.777798	-51.930344	-34.319912	-36.079544	-13.319263	98.707642	38.572365	-1.682611	-24.928730	1.884809	23.028646	66.628723	-16.248291	8.659331	-23.439939	-4.957554	49.620762	-2.728570	-3.559187	-74.180962	-13.372481	-77.646690	91.721107	-38.033810	5.351208	-24.579588	-17.584812	-1.453202	-46.048351	6.080319	18.202789	55.375099	-49.291618	85.388985	-83.295815	-21.160196	-19.796978	-3.208015	-43.217167	5.266020	-1.171085	0.561394	-3.605764	
-5.696760	24.184620	-9.992899	-5.201732	-22.765652	-8.882325	61.786221	-37.107216	29.767675	30.347271	106.436813	-62.242737	-0.170468	-22.789801	1.777798	-51.930653	-34.314964	-36.077602	-13.217513	98.710732	38.459881	-1.668314	-24.944353	1.884257	23.050886	66.624451	-16.281551	8.675881	-23.407297	-4.963285	49.608150	-2.729986	-3.525941	-74.158730	-13.383466	-77.649117	91.724388	-38.036430	5.375972	-24.579588	-17.584812	-1.453202	-46.058945	6.073486	18.249332	55.353401	-49.325588	85.334404	-83.287827	-21.138563	-19.794144	-3.221245	-43.133873	5.248763	-1.161346	0.480242	-3.615086	
-5.698746	24.185089	-9.993755	-5.193330	-22.768076	-8.865666	61.772594	-37.118462	29.758408	30.347271	106.436813	-62.242737	-0.170468	-22.789801	1.777798	-51.927814	-34.309067	-36.084103	-13.126038	98.708298	38.355114	-1.661822	-24.952616	1.883836	23.072479	66.620308	-16.313814	8.688987	-23.368330	-4.966022	49.599171	-2.737617	-3.490978	-74.136398	-13.383862	-77.631866	91.740692	-38.059589	5.404634	-24.579588	-17.584812	-1.453202	-46.061073	6.076677	18.305660	55.317009	-49.347378	85.263626	-83.294868	-21.103447	-19.790628	-3.236392	-43.038036	5.228983	-1.134115	0.333530	-3.696936	
-5.698118	24.183180	-9.989921	-5.185300	-22.770390	-8.849746	61.759567	-37.129208	29.749527	30.347271	106.436813	-62.242737	-0.170468	-22.789801	1.777798	-51.936901	-34.298439	-36.096443	-12.961208	98.711906	38.189621	-1.650470	-24.970036	1.882699	23.093113	66.616333	-16.344666	8.694822	-23.319372	-4.965293	49.597622	-2.754710	-3.453076	-74.106552	-13.369693	-77.612831	91.778267	-38.083878	5.446533	-24.579588	-17.584812	-1.453202	-46.041153	6.098982	18.359718	55.237114	-49.353397	85.202179	-83.342072	-21.084568	-19.813370	-3.243403	-42.993587	5.219820	-1.105040	0.274190	-3.812241	
-5.699671	24.179865	-9.984552	-5.177092	-22.772749	-8.833471	61.746258	-37.140194	29.740465	30.347271	106.436813	-62.242737	-0.170468	-22.789801	1.777798	-51.947559	-34.287167	-36.108517	-12.794467	98.726723	38.025028	-1.645525	-24.996511	1.879545	23.102373	66.613281	-16.353571	8.697764	-23.268402	-4.976619	49.598633	-2.773723	-3.413876	-74.073654	-13.356310	-77.588089	91.817276	-38.114475	5.492332	-24.578144	-17.579601	-1.464254	-46.017670	6.122635	18.393803	55.132771	-49.334339	85.152618	-83.401611	-21.033220	-19.861753	-3.253036	-42.970188	5.199222	-1.052270	0.265734	-3.923454	
-5.702613	24.178194	-9.982738	-5.168263	-22.775295	-8.815973	61.731926	-37.151993	29.730698	30.347271	106.436813	-62.242737	-0.170468	-22.789801	1.777798	-51.956650	-34.274837	-36.125481	-12.680117	98.736443	37.909813	-1.648940	-25.013102	1.876815	23.112583	66.609932	-16.363865	8.697259	-23.220470	-4.988602	49.602043	-2.789026	-3.378069	-74.024765	-13.373810	-77.532349	91.831146	-38.174458	5.550437	-24.576567	-17.574163	-1.475674	-45.984417	6.152916	18.403263	55.032883	-49.332970	85.119713	-83.425972	-20.990202	-19.908428	-3.262799	-42.946655	5.178065	-1.009762	0.257990	-4.006202	
-5.705467	24.176628	-9.981058	-5.159504	-22.777830	-8.798607	61.717693	-37.163700	29.720995	30.347271	106.436813	-62.242737	-0.170468	-22.789801	1.777798	-51.965534	-34.262569	-36.142544	-12.566946	98.745522	37.795612	-1.652228	-25.029043	1.874194	23.134079	66.605667	-16.395761	8.684513	-23.186026	-4.982462	49.607693	-2.765292	-3.374228	-73.994247	-13.453789	-77.507431	91.788300	-38.241581	5.573665	-24.576391	-17.573774	-1.476418	-45.965763	6.169907	18.408564	55.010551	-49.345005	85.123436	-83.413406	-20.944904	-19.908184	-3.263149	-42.946552	5.176969	-0.996334	0.262728	-4.033231	
-5.707017	24.175882	-9.980820	-5.151094	-22.780277	-8.781947	61.704010	-37.174919	29.711655	30.347271	106.436813	-62.242737	-0.170468	-22.789801	1.777798	-51.976181	-34.251007	-36.155300	-12.509315	98.750305	37.737495	-1.653931	-25.037308	1.872839	23.155645	66.601540	-16.428022	8.661430	-23.168104	-4.970037	49.620617	-2.734684	-3.378729	-73.970886	-13.529762	-77.491791	91.735741	-38.306881	5.588318	-24.576391	-17.573774	-1.476418	-45.939045	6.194247	18.416138	54.964481	-49.346363	85.105553	-83.427048	-20.938330	-19.920906	-3.263149	-42.946552	5.176969	-1.024176	0.290242	-4.046600	
-5.709562	24.177244	-9.977772	-5.142813	-22.782677	-8.765557	61.690556	-37.185959	29.702482	30.347271	106.436813	-62.242737	-0.170468	-22.789801	1.777798	-51.977676	-34.229065	-36.165489	-12.425690	98.749184	37.654968	-1.657330	-25.053793	1.870122	23.176838	66.597458	-16.459730	8.659619	-23.155136	-4.959934	49.600494	-2.751517	-3.375745	-73.928177	-13.583831	-77.474907	91.682411	-38.317734	5.596846	-24.576391	-17.573774	-1.476418	-45.903023	6.227078	18.426353	54.885197	-49.340511	85.058304	-83.464027	-20.967762	-19.951006	-3.265307	-42.932697	5.174134	-1.041095	0.291952	-4.051290	
-5.713223	24.178167	-9.972660	-5.134815	-22.784986	-8.749743	61.677567	-37.196598	29.693623	30.347271	106.436813	-62.242737	-0.170468	-22.789801	1.777798	-51.976723	-34.205067	-36.174721	-12.315466	98.752396	37.547287	-1.662440	-25.078613	1.866061	23.185667	66.594460	-16.468229	8.644098	-23.142519	-4.962540	49.552380	-2.782084	-3.375035	-73.864548	-13.633003	-77.457336	91.615799	-38.323521	5.578924	-24.574945	-17.568645	-1.487151	-45.852333	6.248432	18.437319	54.785484	-49.351650	84.992287	-83.471008	-20.984749	-19.973360	-3.274695	-42.909306	5.154006	-1.071853	0.258422	-3.986573	
-5.715815	24.180630	-9.968898	-5.127646	-22.787067	-8.735576	61.660313	-37.200447	29.680153	30.366827	106.431732	-62.262024	-0.170468	-22.789801	1.777798	-51.972923	-34.180717	-36.183262	-12.226395	98.746895	37.459309	-1.665984	-25.095860	1.863262	23.190788	66.591949	-16.470823	8.628263	-23.131493	-4.967777	49.514313	-2.809226	-3.375033	-73.787964	-13.688555	-77.433167	91.555794	-38.331821	5.587598	-24.573235	-17.562893	-1.499053	-45.783699	6.249183	18.448456	54.669693	-49.353172	84.920860	-83.471329	-20.986448	-19.983610	-3.281359	-42.906803	5.136458	-1.095568	0.248740	-3.938668	
-5.718502	24.183323	-9.964968	-5.120633	-22.789095	-8.721743	61.639164	-37.199821	29.662521	30.401667	106.422974	-62.296429	-0.170468	-22.789801	1.777798	-51.967697	-34.155792	-36.192360	-12.128750	98.740311	37.362381	-1.669634	-25.113607	1.860395	23.195993	66.589493	-16.473755	8.615167	-23.122555	-4.973949	49.480621	-2.832037	-3.375017	-73.738495	-13.686625	-77.422974	91.551964	-38.332409	5.588206	-24.571598	-17.557373	-1.510509	-45.715885	6.239115	18.458065	54.568146	-49.349140	84.867104	-83.472229	-20.986368	-19.989784	-3.287586	-42.905624	5.119831	-1.112966	0.242564	-3.903616	
-5.719911	24.188162	-9.962796	-5.113527	-22.791162	-8.707742	61.622166	-37.203667	29.649103	30.421288	106.418106	-62.315800	-0.170468	-22.789801	1.777798	-51.959908	-34.128246	-36.201981	-12.053507	98.721977	37.286079	-1.671396	-25.122169	1.858982	23.200617	66.587112	-16.475481	8.606667	-23.113697	-4.993341	49.438179	-2.845139	-3.365386	-73.685257	-13.680025	-77.412720	91.551964	-38.332409	5.588206	-24.569857	-17.551527	-1.522696	-45.667088	6.204572	18.496805	54.457989	-49.367226	84.766205	-83.463997	-20.987890	-20.004511	-3.292876	-42.913013	5.103907	-1.145705	0.239689	-3.838759	
